<svg width="24" height="24" viewBox="0 0 24 24" fill="none" xmlns="http://www.w3.org/2000/svg">
<path d="M3.2334 17.9364L11.2654 22.5737C11.4936 22.7049 11.7522 22.774 12.0154 22.774C12.2787 22.774 12.5373 22.7049 12.7654 22.5737L20.7976 17.9364C21.0253 17.8044 21.2144 17.6149 21.346 17.387C21.4776 17.159 21.5471 16.9005 21.5476 16.6373V7.36276C21.5471 7.09954 21.4776 6.84104 21.346 6.61309C21.2144 6.38513 21.0253 6.1957 20.7976 6.06371L12.7655 1.42641C12.5373 1.29516 12.2787 1.22607 12.0155 1.22607C11.7523 1.22607 11.4936 1.29516 11.2655 1.42641L3.2334 6.06371C3.00566 6.19569 2.81653 6.38512 2.68492 6.61308C2.55331 6.84104 2.48382 7.09954 2.4834 7.36276V16.6374C2.48382 16.9006 2.55331 17.1591 2.68492 17.387C2.81653 17.615 3.00566 17.8044 3.2334 17.9364ZM12.7654 3.15849L20.0475 7.36276V15.6774L12.7654 11.5614V3.15849ZM12.013 12.8591L19.3797 17.0229L12.0156 21.2745L4.64884 17.0215L12.013 12.8591ZM3.9834 7.36276L11.2654 3.15849V11.5585L3.9834 15.6746V7.36276Z" fill="white"/>
</svg>
