<svg width="24" height="24" viewBox="0 0 24 24" fill="none" xmlns="http://www.w3.org/2000/svg">
<path d="M20.4063 16.3467C19.3351 15.186 18.0351 14.2598 16.5883 13.6262C15.1415 12.9927 13.5791 12.6656 11.9997 12.6656C10.4202 12.6656 8.85788 12.9927 7.41105 13.6262C5.96421 14.2598 4.66424 15.186 3.59301 16.3467C3.42762 16.5296 3.3351 16.7668 3.33301 17.0134V21.0134C3.33651 21.2762 3.44342 21.5272 3.63057 21.7119C3.81773 21.8965 4.07009 22 4.33301 22H19.6663C19.9316 22 20.1859 21.8947 20.3734 21.7071C20.561 21.5196 20.6663 21.2652 20.6663 21V17C20.661 16.7581 20.5687 16.5261 20.4063 16.3467Z" fill="white"/>
<path d="M11.9997 11.3333C14.577 11.3333 16.6663 9.244 16.6663 6.66667C16.6663 4.08934 14.577 2 11.9997 2C9.42235 2 7.33301 4.08934 7.33301 6.66667C7.33301 9.244 9.42235 11.3333 11.9997 11.3333Z" fill="white"/>
</svg>
